<svg width="16" height="16" xmlns="http://www.w3.org/2000/svg"><rect transform="translate(-1)" x="5" y="1" width="2" height="3" rx=".5" fill="#d7d7d7"/><rect transform="translate(-1)" x="5" y="12" width="2" height="3" rx=".5" fill="#d7d7d7"/><rect transform="translate(-1)" x="9" y="12" width="2" height="3" rx=".5" fill="#d7d7d7"/><rect transform="translate(-1)" x="9" y="1" width="2" height="3" rx=".5" fill="#d7d7d7"/><rect transform="translate(-1)" x="1" y="5" width="3" height="2" rx=".5" fill="#d7d7d7"/><rect transform="translate(-1)" x="1" y="9" width="3" height="2" rx=".5" fill="#d7d7d7"/><rect transform="translate(-1)" x="12" y="9" width="3" height="2" rx=".5" fill="#d7d7d7"/><rect transform="translate(-1)" x="12" y="5" width="3" height="2" rx=".5" fill="#d7d7d7"/><rect transform="translate(-1)" x="3" y="3" width="10" height="10" rx="1" fill="#2e5d78"/><rect transform="translate(-1)" x="5.5" y="5.5" width="5" height="5" rx="1" fill="#d7d7d7"/></svg>