<svg width="10" height="8" xmlns="http://www.w3.org/2000/svg"><rect transform="translate(-3-4)" x="4.5" y="9" width="7" height="2" ry=".5" fill="#414141"/><rect transform="translate(-3-4)" x="4.5" y="6" width="7" height="4" rx=".5" fill="#007100"/><rect transform="translate(-3-4)" x="4.5" y="9.5" width="7" height=".5" fill="#414141"/><rect transform="translate(-3-4)" x="5.5" y="7" width="1" height="2" fill="#414141"/><rect transform="translate(-3-4)" x="7.5" y="7" width="1" height="2" fill="#414141"/><rect transform="translate(-3-4)" x="9.5" y="7" width="1" height="2" fill="#414141"/><rect transform="translate(-3-4)" x="10.25" y="10" width=".5" height="1" fill="#95360f"/><rect transform="translate(-3-4)" x="8.25" y="10" width=".5" height="1" fill="#95360f"/><rect transform="translate(-3-4)" x="7.25" y="10" width=".5" height="1" fill="#95360f"/><rect transform="translate(-3-4)" x="6.25" y="10" width=".5" height="1" fill="#95360f"/><rect transform="translate(-3-4)" x="5.25" y="10" width=".5" height="1" fill="#95360f"/><rect transform="translate(-3-4)" x="9.25" y="10" width=".5" height="1" fill="#95360f"/></svg>