<svg width="20" height="20" xmlns="http://www.w3.org/2000/svg"><path transform="translate(-1 2)" d="M1 5 1 11 5 11 9 14 9 2 5 5Z" fill="#2e5d78" stroke="#2e5d78" stroke-width=".5" stroke-linecap="round" stroke-linejoin="round"/><path transform="translate(0 2)" d="M9 1A1 1 0 0 1 9 15" fill="none" stroke="#6c270b" stroke-width="1.35" stroke-linecap="round"/><path transform="translate(0 2)" d="M9 3A1 1 0 0 1 9 13" fill="none" stroke="#6c270b" stroke-width="1.25" stroke-linecap="round"/><path transform="translate(0 2)" d="M9 5A1 1 0 0 1 9 11" fill="none" stroke="#6c270b" stroke-width="1.15" stroke-linecap="round"/><path transform="translate(0 2)" d="M9 7A1 1 0 0 1 9 9" fill="none" stroke="#6c270b" stroke-linecap="round"/></svg>